HIERARCHY
ROOT Hips
{
	OFFSET 0.00000 0.00000 0.00000
	CHANNELS 6 Xposition Yposition Zposition Zrotation Yrotation Xrotation 
	JOINT LHipJoint
	{
		OFFSET 0 0 0
		CHANNELS 3 Zrotation Yrotation Xrotation
		JOINT LeftUpLeg
		{
			OFFSET 1.62964 -1.40469 0.78906
			CHANNELS 3 Zrotation Yrotation Xrotation
			JOINT LeftLeg
			{
				OFFSET 2.29640 -6.30932 0.00000
				CHANNELS 3 Zrotation Yrotation Xrotation
				JOINT LeftFoot
				{
					OFFSET 2.29451 -6.30412 0.00000
					CHANNELS 3 Zrotation Yrotation Xrotation
					JOINT LeftToeBase
					{
						OFFSET 0.03611 -0.09921 1.56387
						CHANNELS 3 Zrotation Yrotation Xrotation
						End Site
						{
							OFFSET 0.00000 -0.00000 0.80291
						}
					}
				}
			}
		}
	}
	JOINT RHipJoint
	{
		OFFSET 0 0 0
		CHANNELS 3 Zrotation Yrotation Xrotation
		JOINT RightUpLeg
		{
			OFFSET -1.73712 -1.40469 0.78906
			CHANNELS 3 Zrotation Yrotation Xrotation
			JOINT RightLeg
			{
				OFFSET -2.28137 -6.26801 0.00000
				CHANNELS 3 Zrotation Yrotation Xrotation
				JOINT RightFoot
				{
					OFFSET -2.28681 -6.28298 0.00000
					CHANNELS 3 Zrotation Yrotation Xrotation
					JOINT RightToeBase
					{
						OFFSET -0.15927 -0.43759 1.61103
						CHANNELS 3 Zrotation Yrotation Xrotation
						End Site
						{
							OFFSET -0.00000 -0.00000 0.84630
						}
					}
				}
			}
		}
	}
	JOINT LowerBack
	{
		OFFSET 0 0 0
		CHANNELS 3 Zrotation Yrotation Xrotation
		JOINT Spine
		{
			OFFSET -0.04227 2.04338 -0.00225
			CHANNELS 3 Zrotation Yrotation Xrotation
			JOINT Spine1
			{
				OFFSET -0.02148 2.04482 -0.04273
				CHANNELS 3 Zrotation Yrotation Xrotation
				JOINT Neck
				{
					OFFSET 0 0 0
					CHANNELS 3 Zrotation Yrotation Xrotation
					JOINT Neck1
					{
						OFFSET 0.09180 1.44629 0.19359
						CHANNELS 3 Zrotation Yrotation Xrotation
						JOINT Head
						{
							OFFSET 0.00887 1.40645 0.14750
							CHANNELS 3 Zrotation Yrotation Xrotation
							End Site
							{
								OFFSET -0.00669 1.50671 0.03707
							}
						}
					}
				}
				JOINT LeftShoulder
				{
					OFFSET 0 0 0
					CHANNELS 3 Zrotation Yrotation Xrotation
					JOINT LeftArm
					{
						OFFSET 2.17674 1.86763 -0.06520
						CHANNELS 3 Zrotation Yrotation Xrotation
						JOINT LeftForeArm
						{
							OFFSET 4.65776 -0.00000 0.00000
							CHANNELS 3 Zrotation Yrotation Xrotation
							JOINT LeftHand
							{
								OFFSET 3.55539 -0.00000 0.00000
								CHANNELS 3 Zrotation Yrotation Xrotation
								JOINT LeftFingerBase
								{
									OFFSET 0 0 0
									CHANNELS 3 Zrotation Yrotation Xrotation
									JOINT LeftHandIndex1
									{
										OFFSET 0.70726 -0.00000 0.00000
										CHANNELS 3 Zrotation Yrotation Xrotation
										End Site
										{
											OFFSET 0.57022 -0.00000 0.00000
										}
									}
								}
								JOINT LThumb
								{
									OFFSET 0 0 0
									CHANNELS 3 Zrotation Yrotation Xrotation
									End Site
									{
										OFFSET 0.57892 -0.00000 0.57892
									}
								}
							}
						}
					}
				}
				JOINT RightShoulder
				{
					OFFSET 0 0 0
					CHANNELS 3 Zrotation Yrotation Xrotation
					JOINT RightArm
					{
						OFFSET -2.80694 1.55459 -0.32496
						CHANNELS 3 Zrotation Yrotation Xrotation
						JOINT RightForeArm
						{
							OFFSET -4.71925 -0.00000 -0.00000
							CHANNELS 3 Zrotation Yrotation Xrotation
							JOINT RightHand
							{
								OFFSET -3.56990 -0.00000 0.00000
								CHANNELS 3 Zrotation Yrotation Xrotation
								JOINT RightFingerBase
								{
									OFFSET 0 0 0
									CHANNELS 3 Zrotation Yrotation Xrotation
									JOINT RightHandIndex1
									{
										OFFSET -0.50776 -0.00000 0.00000
										CHANNELS 3 Zrotation Yrotation Xrotation
										End Site
										{
											OFFSET -0.40937 -0.00000 0.00000
										}
									}
								}
								JOINT RThumb
								{
									OFFSET 0 0 0
									CHANNELS 3 Zrotation Yrotation Xrotation
									End Site
									{
										OFFSET -0.41562 -0.00000 0.41562
									}
								}
							}
						}
					}
				}
			}
		}
	}
}
MOTION
Frames: 11
Frame Time: 0.0512821
0.00 0.00 0.00 179.6260 -2.1580 -157.0270 0.0000 0.0000 0.0000 -18.3786 -18.7269 -32.7095 2.2058 9.2821 26.6819 0.4737 -3.0801 -12.3103 1.5688 -7.9034 -22.4210 0.0000 0.0000 0.0000 7.6053 17.3632 -76.1332 -17.8911 -19.8930 83.8235 -43.2651 -38.4825 168.2661 -4.5168 12.8180 -38.6910 -7.8050 -2.5773 -17.1972 -1.4787 -1.7129 2.3016 2.2917 -1.3361 12.4933 -2.0581 -2.9985 -3.5522 5.8978 -3.7494 19.8890 2.0426 -1.0097 6.7799 0.0000 0.0000 0.0000 -81.4696 -0.9822 20.3083 19.5598 -30.1083 -5.3087 -0.0000 -0.0000 1.3430 23.0523 -8.8479 -3.7450 -7.1250 0.0000 -0.0000 -2.7695 20.3831 1.6333 0.0000 0.0000 0.0000 89.3900 -9.8371 10.3914 -19.0669 29.5017 -5.0638 0.0000 -0.0000 -1.6238 -13.5453 -52.2240 10.7813 7.1250 -0.0000 -0.0000 63.1199 -76.0768 -49.7308
0.00 0.00 0.00 180.0800 -2.6848 -157.2970 0.0000 0.0000 0.0000 -18.1437 -18.6320 -31.0749 2.0092 8.8851 25.4366 0.4785 -2.8559 -12.3984 1.5586 -7.8788 -22.3465 0.0000 0.0000 0.0000 6.8111 17.8339 -79.2045 -19.3747 -19.9906 88.1714 -66.5014 -65.8591 -167.5224 -4.5397 12.8459 -38.7942 -7.3325 -2.7453 -17.0361 -1.2401 -2.0499 2.4779 2.1975 -1.4678 12.6261 -1.7993 -2.8097 -3.8404 5.8075 -3.5444 19.5779 1.9764 -0.9224 6.7156 0.0000 0.0000 0.0000 -81.3434 -1.2394 20.8009 19.7140 -30.2963 -5.3863 -0.0000 -0.0000 1.2239 22.7207 -9.2218 -3.8391 -7.1250 0.0000 -0.0000 -3.0179 20.0041 1.8059 0.0000 0.0000 0.0000 89.7163 -9.9259 9.3183 -18.6158 28.9385 -4.8435 0.0000 -0.0000 -0.8169 -12.4827 -53.1519 10.0458 7.1250 -0.0000 -0.0000 67.1942 -75.9578 -53.2999
0.00 0.00 0.00 180.1320 -2.7808 -157.4350 0.0000 0.0000 0.0000 -18.1753 -18.5203 -30.5082 1.9491 8.7593 25.0453 0.4787 -2.8073 -12.4069 1.6622 -8.1239 -23.0912 0.0000 0.0000 0.0000 6.5179 17.9734 -79.9517 -19.7159 -19.9981 89.1692 -90.6745 -72.2860 -144.7708 -4.5152 12.8161 -38.6840 -7.4331 -2.7927 -16.8549 -1.1435 -2.1152 2.4780 2.3498 -1.5059 12.5353 -1.8258 -2.8608 -3.9618 5.7276 -3.6005 19.7187 1.9515 -0.9517 6.7839 0.0000 0.0000 0.0000 -81.4316 -1.3654 20.8423 19.6575 -30.2275 -5.3579 -0.0000 -0.0000 1.4762 22.5806 -9.0320 -3.7352 -7.1250 0.0000 -0.0000 -3.1133 20.2188 1.8482 0.0000 0.0000 0.0000 89.7619 -10.1031 8.9393 -18.4605 28.7428 -4.7686 0.0000 -0.0000 -0.5807 -12.9728 -52.6316 10.3751 7.1250 -0.0000 -0.0000 64.9657 -75.9901 -51.3035
0.00 0.00 0.00 180.3130 -3.2797 -157.7890 0.0000 0.0000 0.0000 -18.3921 -18.6231 -28.5183 1.7575 8.3416 23.7565 0.4800 -2.3946 -12.4821 1.8171 -8.4741 -24.1637 0.0000 0.0000 0.0000 5.9498 17.8505 -81.6506 -19.7307 -19.9983 89.2126 31.1385 -64.4368 -59.6682 -4.5422 12.8490 -38.8056 -7.1242 -2.8989 -16.9162 -1.0129 -2.3184 2.5434 2.2604 -1.5839 12.6586 -1.7427 -3.0558 -3.7451 5.6973 -3.8339 20.0103 1.9176 -1.0385 6.8474 -0.0000 0.0000 0.0000 -81.4099 -1.2455 21.5481 19.6508 -30.2194 -5.3545 -0.0000 -0.0000 1.5808 22.6033 -8.8576 -3.6680 -7.1250 0.0000 -0.0000 -3.0925 20.4050 1.8229 -0.0000 0.0000 0.0000 90.0627 -10.6725 8.0743 -18.1459 28.3436 -4.6183 0.0000 0.0000 0.3331 -11.9615 -54.0090 9.7267 7.1250 -0.0000 -0.0000 70.7455 -75.9773 -56.6089
0.00 0.00 0.00 180.7510 -3.5374 -158.0990 0.0000 0.0000 0.0000 -18.2132 -18.5131 -27.0223 1.6426 8.0781 22.9516 0.4992 -1.6430 -12.8796 2.4271 -9.7042 -28.0240 0.0000 0.0000 0.0000 5.7136 18.0083 -82.8568 -18.2048 -19.9226 84.7448 3.6091 -37.5178 -37.9162 -4.6276 12.9517 -39.1881 -6.7085 -2.9819 -16.6708 -0.7880 -2.5466 2.6036 2.2211 -1.6642 12.5949 -1.8967 -3.0292 -3.6498 5.9109 -3.8269 19.8278 2.0119 -1.0400 6.7780 -0.0000 -0.0000 0.0000 -81.4873 -1.0296 21.9356 19.7003 -30.2796 -5.3794 -0.0000 -0.0000 1.7143 22.6501 -9.1254 -3.7863 -7.1250 0.0000 -0.0000 -3.0659 20.1131 1.8272 -0.0000 -0.0000 0.0000 90.1786 -10.7548 7.1645 -17.4313 27.4228 -4.2841 0.0000 0.0000 0.9851 -12.2881 -52.7960 9.8422 7.1250 -0.0000 -0.0000 65.9052 -75.7779 -51.9284
0.00 0.00 0.00 180.8080 -3.6190 -158.2150 0.0000 0.0000 0.0000 -18.3977 -18.4209 -26.1422 1.5823 7.9357 22.5188 0.5045 -1.2634 -13.0401 2.9653 -10.6387 -31.0708 0.0000 0.0000 0.0000 5.2379 18.1068 -83.5825 -16.9206 -19.7711 80.9634 -0.2888 -19.0640 -29.1486 -5.6470 14.0773 -43.5479 -6.7571 -3.0245 -16.7700 -0.6064 -2.5930 2.7012 2.4312 -1.7001 12.7840 -1.9454 -3.0469 -3.8552 5.8351 -3.8410 19.9605 1.9936 -1.0516 6.8574 -0.0000 -0.0000 0.0000 -81.7357 -1.1681 22.4407 19.6443 -30.2114 -5.3512 -0.0000 -0.0000 1.7093 22.8211 -9.2106 -3.8533 -7.1250 0.0000 -0.0000 -2.9457 20.0086 1.7623 -0.0000 -0.0000 0.0000 90.1288 -10.5809 6.4237 -17.0527 26.9272 -4.1112 0.0000 0.0000 1.4458 -12.5322 -52.3113 9.9764 7.1250 -0.0000 -0.0000 63.9551 -75.7149 -50.0974
0.00 0.00 0.00 179.0750 -3.3648 -155.1180 0.0000 0.0000 0.0000 -19.8097 -14.5432 -11.6397 1.1536 6.8195 19.1816 -0.0325 3.2359 -0.6307 4.2064 -12.4301 -37.2711 0.0000 0.0000 0.0000 7.4746 21.5613 -68.7569 -10.5465 -17.7059 61.2998 -2.5155 -0.0014 -30.0653 -1.0475 6.5086 -18.2675 -2.1562 -2.5840 -18.4469 0.8867 -3.1011 1.9000 1.3075 -1.6477 12.7003 -1.3975 -2.3261 -4.2443 2.7302 -2.6119 17.7593 0.9634 -0.8149 6.1256 -0.0000 -0.0000 0.0000 -84.4223 0.9062 19.8938 13.6496 -22.2316 -2.6941 -0.0000 -0.0000 9.5397 20.2930 -8.5493 -3.1464 -7.1250 0.0000 -0.0000 -4.7519 20.8877 2.7547 -0.0000 -0.0000 0.0000 89.4347 -6.8848 10.3701 -22.8183 33.8895 -7.0367 0.0000 -0.0000 -3.0233 -13.5368 -53.4736 10.9497 7.1250 -0.0000 -0.0000 68.0809 -76.4509 -54.6495
0.00 0.00 0.00 178.6420 -4.1670 -152.8380 0.0000 0.0000 0.0000 -16.9061 -14.6540 -22.5124 3.5335 11.5123 34.0276 0.1976 10.2743 10.0568 2.3826 -9.6213 -27.7587 0.0000 0.0000 0.0000 9.8176 22.2178 -59.5472 -7.7035 -15.8968 51.4876 -2.4931 -0.8720 -30.2169 -1.6533 8.1032 -23.0280 -0.8426 -2.6798 -19.3700 1.0239 -3.5731 1.1472 0.5520 -1.7940 12.3172 -1.5396 -1.6928 -3.3807 2.1964 -1.6726 16.8545 0.8793 -0.4329 5.6683 0.0000 0.0000 0.0000 -83.7238 2.1060 19.9646 15.3487 -24.6296 -3.3699 -0.0000 -0.0000 2.7012 22.1478 -9.8404 -3.9793 -7.1250 0.0000 -0.0000 -3.4443 19.3828 2.1098 0.0000 0.0000 0.0000 88.7288 -7.6998 13.0339 -24.8048 36.0038 -8.1749 0.0000 -0.0000 -5.6345 -12.7339 -53.2624 10.2649 7.1250 -0.0000 -0.0000 67.5280 -76.0851 -53.7444
0.00 0.00 0.00 178.4880 -4.4672 -152.7350 0.0000 0.0000 0.0000 -15.7629 -15.7540 -30.7027 7.5258 15.7591 50.8360 -0.2190 11.5611 4.4046 2.6895 -10.1746 -29.5439 0.0000 0.0000 0.0000 11.2043 21.9542 -55.1668 -6.3963 -14.8017 46.5523 -2.1955 -1.9289 -28.7585 -2.1682 9.2080 -26.4482 -1.1450 -2.5701 -19.3194 1.1243 -3.3645 1.2486 0.8975 -1.7192 12.4241 -1.7383 -2.0145 -4.2423 2.1003 -2.0210 17.9176 0.8608 -0.5891 6.1605 0.0000 -0.0000 0.0000 -83.5831 1.6130 20.8606 15.6239 -25.0080 -3.4854 -0.0000 -0.0000 1.7921 21.4832 -9.9311 -3.8831 -7.1250 0.0000 -0.0000 -3.9196 19.3369 2.4063 0.0000 -0.0000 0.0000 88.3198 -7.0934 12.8274 -24.5316 35.7213 -8.0148 0.0000 -0.0000 -6.1320 -14.1467 -51.7609 11.1980 7.1250 -0.0000 -0.0000 61.0275 -76.1445 -47.9329
0.00 0.00 0.00 178.5320 -3.6697 -153.0650 0.0000 0.0000 0.0000 -14.5668 -16.6855 -40.5011 13.5342 18.9666 70.7767 -0.2965 10.0518 -0.5121 4.3795 -12.6489 -38.0682 0.0000 0.0000 0.0000 13.2275 21.6811 -49.5757 -4.8570 -13.2209 40.2011 -1.7041 -2.6853 -25.7506 -2.7303 10.2451 -29.7742 -1.6641 -1.9286 -19.1098 0.8725 -2.3512 1.4368 1.2197 -1.2694 12.4934 -1.4720 -2.1807 -3.2421 2.4206 -2.3178 17.2431 0.9044 -0.6992 5.7808 -0.0000 0.0000 0.0000 -83.3204 1.1901 21.2970 15.6992 -25.1110 -3.5173 -0.0000 -0.0000 2.7882 21.5851 -10.2283 -4.0185 -7.1250 0.0000 -0.0000 -3.8545 19.0119 2.3940 -0.0000 0.0000 0.0000 88.2664 -6.1551 12.2295 -24.2591 35.4370 -7.8563 0.0000 -0.0000 -4.9169 -13.6075 -52.3852 10.8545 7.1250 -0.0000 -0.0000 63.7141 -76.1556 -50.3485
0.00 0.00 0.00 178.3030 -2.6279 -153.3090 0.0000 0.0000 0.0000 -13.8821 -17.5014 -47.1425 17.5850 19.8596 82.9232 -0.6383 -14.3242 8.6548 4.5876 -12.9038 -39.0092 0.0000 0.0000 0.0000 14.2390 21.0374 -46.2949 -4.0912 -12.2807 36.7324 -1.5804 -2.1566 -24.6133 -2.7454 10.2709 -29.8587 -2.4293 -1.5549 -19.1235 0.6233 -1.6370 1.5948 1.5894 -0.9790 12.6691 -1.5488 -2.3064 -3.8824 2.3045 -2.4047 18.2042 0.8748 -0.7182 6.1964 -0.0000 0.0000 0.0000 -83.4879 1.4014 20.5680 15.8115 -25.2644 -3.5651 -0.0000 -0.0000 3.1725 21.9822 -10.4762 -4.1978 -7.1250 0.0000 -0.0000 -3.5800 18.7150 2.2464 -0.0000 0.0000 0.0000 88.2912 -5.5547 11.8138 -24.3498 35.5320 -7.9089 0.0000 -0.0000 -4.2430 -12.6842 -53.1481 10.2094 7.1250 -0.0000 -0.0000 67.0985 -76.0341 -53.2948
